<svg width="49" height="49" viewBox="0 0 49 49" fill="none" xmlns="http://www.w3.org/2000/svg">
<path d="M33.8235 15.2592C33.4014 14.8371 32.7195 14.8371 32.2974 15.2592L27.7085 19.8482L23.1195 15.2592C22.6974 14.8371 22.0155 14.8371 21.5934 15.2592C21.1713 15.6813 21.1713 16.3632 21.5934 16.7853L26.1824 21.3742L21.5934 25.9632C21.1713 26.3853 21.1713 27.0672 21.5934 27.4893C22.0047 27.9005 22.719 27.9005 23.1195 27.4893L27.7085 22.9003L32.2974 27.4893C32.5031 27.6949 32.7736 27.8031 33.0659 27.8031C33.3581 27.8031 33.6287 27.6949 33.8343 27.4893C34.2564 27.0672 34.2564 26.3853 33.8343 25.9632L29.2453 21.3742L33.8343 16.7853C34.2456 16.3632 34.2456 15.6813 33.8235 15.2592Z" fill="#808080"/>
<path d="M13.4643 6.88122C9.69095 10.6546 7.61095 15.6812 7.61095 21.0279C7.61095 25.8812 9.37095 30.5346 12.571 34.1746L13.0408 34.2279L12.0942 33.2812C11.5875 32.7746 12.3761 31.5604 10.2142 33.2812L3.61416 39.8812C2.85416 40.6412 2.44083 41.6412 2.44083 42.7079C2.44083 43.7746 2.85416 44.7879 3.61416 45.5346C4.37416 46.2946 5.37416 46.7079 6.44083 46.7079C7.5075 46.7079 8.52083 46.2946 9.2675 45.5346L15.8675 38.9346C17.8271 37.0546 16.3875 37.5746 15.8675 37.0546L14.9208 36.1079L14.8066 36.227C18.4599 39.427 22.7443 41.0145 27.5976 41.0145C32.9443 41.0145 37.9576 38.9346 41.7443 35.1612C45.5176 31.3879 47.5976 26.3612 47.5976 21.0146C47.5976 15.6679 45.5176 10.6546 41.7443 6.86789C33.9443 -0.905447 21.2643 -0.905449 13.4643 6.88122ZM27.5976 38.3612C22.971 38.3612 18.611 36.5612 15.3443 33.2812C12.0776 30.0012 10.2643 25.6546 10.2643 21.0279C10.2643 16.4012 12.0643 12.0412 15.3443 8.77455C18.611 5.50788 22.971 3.70789 27.5976 3.70789C32.2376 3.70789 36.5843 5.50788 39.851 8.77455C43.131 12.0546 44.931 16.4012 44.931 21.0279C44.931 25.6546 43.131 30.0146 39.851 33.2812C36.571 36.5479 32.2376 38.3612 27.5976 38.3612ZM5.49416 43.6679C4.97416 43.1479 4.97416 42.3079 5.49416 41.7879L13.0408 34.2279L14.8066 36.227L7.37416 43.6812C6.88083 44.1612 5.9875 44.1612 5.49416 43.6679Z" fill="#808080"/>
</svg>
